<?xml version="1.0" encoding="UTF-8" standalone="no"?>
<!-- Created with Inkscape (http://www.inkscape.org/) -->

<svg
   xmlns:dc="http://purl.org/dc/elements/1.1/"
   xmlns:cc="http://creativecommons.org/ns#"
   xmlns:rdf="http://www.w3.org/1999/02/22-rdf-syntax-ns#"
   xmlns:svg="http://www.w3.org/2000/svg"
   xmlns="http://www.w3.org/2000/svg"
   xmlns:xlink="http://www.w3.org/1999/xlink"
   xmlns:sodipodi="http://sodipodi.sourceforge.net/DTD/sodipodi-0.dtd"
   xmlns:inkscape="http://www.inkscape.org/namespaces/inkscape"
   width="65"
   height="22"
   id="svg2857"
   version="1.1"
   inkscape:version="0.48.4 r9939"
   sodipodi:docname="toggle-on-intl.svg">
  <defs
     id="defs2859">
    <linearGradient
       id="linearGradient3818">
      <stop
         style="stop-color:#7d8084;stop-opacity:1;"
         offset="0"
         id="stop3820" />
      <stop
         style="stop-color:#f1ffff;stop-opacity:1;"
         offset="1"
         id="stop3822" />
    </linearGradient>
    <linearGradient
       id="linearGradient3771">
      <stop
         style="stop-color:#3d3d3d;stop-opacity:1;"
         offset="0"
         id="stop3773" />
      <stop
         style="stop-color:#1a1a1a;stop-opacity:1;"
         offset="1"
         id="stop3775" />
    </linearGradient>
    <inkscape:perspective
       sodipodi:type="inkscape:persp3d"
       inkscape:vp_x="0 : 526.18109 : 1"
       inkscape:vp_y="0 : 1000 : 0"
       inkscape:vp_z="744.09448 : 526.18109 : 1"
       inkscape:persp3d-origin="372.04724 : 350.78739 : 1"
       id="perspective2865" />
    <inkscape:perspective
       id="perspective2843"
       inkscape:persp3d-origin="0.5 : 0.33333333 : 1"
       inkscape:vp_z="1 : 0.5 : 1"
       inkscape:vp_y="0 : 1000 : 0"
       inkscape:vp_x="0 : 0.5 : 1"
       sodipodi:type="inkscape:persp3d" />
    <linearGradient
       inkscape:collect="always"
       xlink:href="#linearGradient3771"
       id="linearGradient3777"
       x1="-488.85876"
       y1="782.98712"
       x2="-488.85876"
       y2="801.73718"
       gradientUnits="userSpaceOnUse"
       gradientTransform="matrix(0.96930044,0,0,0.88210673,17.303271,93.41414)" />
    <linearGradient
       inkscape:collect="always"
       xlink:href="#linearGradient3818"
       id="linearGradient3824"
       x1="-468.5065"
       y1="783.75989"
       x2="-468.79059"
       y2="795.19458"
       gradientUnits="userSpaceOnUse" />
  </defs>
  <sodipodi:namedview
     id="base"
     pagecolor="#ffffff"
     bordercolor="#666666"
     borderopacity="1.0"
     inkscape:pageopacity="0.0"
     inkscape:pageshadow="2"
     inkscape:zoom="4.9780317"
     inkscape:cx="52.411848"
     inkscape:cy="9.7334529"
     inkscape:document-units="px"
     inkscape:current-layer="layer1"
     showgrid="true"
     inkscape:window-width="1112"
     inkscape:window-height="751"
     inkscape:window-x="609"
     inkscape:window-y="395"
     inkscape:window-maximized="0"
     borderlayer="true"
     inkscape:showpageshadow="false">
    <inkscape:grid
       type="xygrid"
       id="grid3826" />
  </sodipodi:namedview>
  <metadata
     id="metadata2862">
    <rdf:RDF>
      <cc:Work
         rdf:about="">
        <dc:format>image/svg+xml</dc:format>
        <dc:type
           rdf:resource="http://purl.org/dc/dcmitype/StillImage" />
        <dc:title></dc:title>
      </cc:Work>
    </rdf:RDF>
  </metadata>
  <g
     inkscape:label="Layer 1"
     inkscape:groupmode="layer"
     id="layer1"
     transform="translate(-444.64286,-781.36218)">
    <rect
       transform="scale(-1,1)"
       ry="4"
       rx="4"
       y="782.86218"
       x="-508.14285"
       height="19"
       width="63.000004"
       id="rect16256-9-4"
       style="color:#000000;fill:url(#linearGradient3824);fill-opacity:1;fill-rule:nonzero;stroke:#000000;stroke-width:0.99999994;stroke-linecap:round;stroke-linejoin:miter;stroke-miterlimit:4;stroke-opacity:1;stroke-dasharray:none;stroke-dashoffset:0;marker:none;visibility:visible;display:inline;overflow:visible;enable-background:accumulate" />
    <rect
       transform="scale(-1,1)"
       ry="3.5284271"
       rx="3.8772018"
       y="783.54114"
       x="-475.72446"
       height="17.642134"
       width="30.048315"
       id="rect16258-5-4"
       style="fill:url(#linearGradient3777);fill-opacity:1;stroke:#00304c;stroke-width:0.64727348;stroke-linecap:round;stroke-linejoin:miter;stroke-miterlimit:4;stroke-opacity:1;stroke-dasharray:none;stroke-dashoffset:0;display:inline" />
    <g
       id="text42229-3-0"
       style="font-size:8.95877075px;font-style:normal;font-variant:normal;font-weight:bold;font-stretch:normal;text-indent:0;text-align:start;text-decoration:none;line-height:125%;letter-spacing:normal;word-spacing:normal;text-transform:none;direction:ltr;block-progression:tb;writing-mode:lr-tb;text-anchor:start;color:#000000;fill:#00304c;fill-opacity:1;fill-rule:nonzero;stroke:none;stroke-width:1px;marker:none;visibility:visible;display:inline;overflow:visible;enable-background:accumulate;font-family:Cantarell;-inkscape-font-specification:Cantarell Bold"
       transform="translate(-397.66396,693.87354)">
      <path
         inkscape:connector-curvature="0"
         id="path18606"
         style="line-height:125%;fill:#00304c;fill-opacity:1;marker:none;font-family:Cantarell;-inkscape-font-specification:Cantarell Bold"
         d="m 808.01473,80.573953 c 0.63283,6e-6 1.19567,0.123947 1.68852,0.371824 0.49284,0.247888 0.88071,0.609505 1.16359,1.084851 0.28287,0.472439 0.42431,1.022155 0.42432,1.649149 -10e-6,0.635748 -0.13853,1.200045 -0.41557,1.692892 -0.27705,0.489934 -0.66637,0.870506 -1.16796,1.141719 -0.50161,0.271212 -1.07757,0.406819 -1.72789,0.406819 -0.4287,0 -0.83552,-0.06562 -1.22046,-0.196848 -0.38495,-0.134148 -0.73053,-0.32808 -1.03673,-0.581795 -0.3033,-0.256631 -0.54535,-0.589085 -0.72615,-0.997363 -0.1779,-0.408276 -0.26684,-0.869045 -0.26684,-1.382311 0,-0.638658 0.13998,-1.200039 0.41994,-1.684144 0.27996,-0.487011 0.66782,-0.858835 1.16359,-1.115472 0.49576,-0.259541 1.06298,-0.389315 1.70164,-0.389321 m 0.57305,1.089225 c -0.20123,-0.05249 -0.40682,-0.07873 -0.61679,-0.07874 -0.20998,5e-6 -0.41411,0.02625 -0.61242,0.07874 -0.19831,0.04958 -0.38932,0.129779 -0.57304,0.240592 -0.18081,0.107907 -0.33975,0.242055 -0.47681,0.402445 -0.13707,0.160399 -0.24643,0.358705 -0.32808,0.594918 -0.0817,0.233305 -0.12249,0.491395 -0.12249,0.774269 0,0.67366 0.20851,1.214627 0.62554,1.622902 0.41703,0.408279 0.93758,0.612417 1.56166,0.612416 0.25955,10e-7 0.51035,-0.04228 0.7524,-0.126857 0.24496,-0.08457 0.47097,-0.20997 0.67803,-0.376199 0.20705,-0.166225 0.37328,-0.392236 0.49868,-0.678031 0.1254,-0.285792 0.1881,-0.610956 0.1881,-0.975492 0,-0.297455 -0.0437,-0.568668 -0.13123,-0.813638 -0.0875,-0.247878 -0.20414,-0.453475 -0.34995,-0.61679 -0.1429,-0.163307 -0.31059,-0.301829 -0.50306,-0.415568 -0.18956,-0.11373 -0.38641,-0.195385 -0.59054,-0.244967" />
      <path
         inkscape:connector-curvature="0"
         id="path18608"
         style="line-height:125%;fill:#00304c;fill-opacity:1;marker:none;font-family:Cantarell;-inkscape-font-specification:Cantarell Bold"
         d="m 813.15903,80.639569 1.21608,0 3.4689,4.776844 0,-4.776844 1.10235,0 0,6.216022 -1.22921,0 -3.45577,-4.785594 0,4.785594 -1.10235,0 0,-6.216022" />
    </g>
    <path
       style="fill:#00cfeb;fill-opacity:0.98319325;stroke:#000000;stroke-width:0.03515445;stroke-miterlimit:4;stroke-opacity:1;stroke-dasharray:none"
       d="m 460.38011,795.08308 c -0.0926,-0.0471 -0.22815,-0.17615 -0.30133,-0.2867 l -0.13304,-0.20098 -0.0145,-2.82851 c -0.01,-1.94208 0.003,-2.89277 0.0407,-3.03356 0.0304,-0.11278 0.1287,-0.28524 0.21852,-0.38325 0.13717,-0.14968 0.2054,-0.18225 0.42625,-0.20347 0.31935,-0.0307 0.53483,0.0689 0.71365,0.32979 l 0.12203,0.17804 0.014,2.91653 0.014,2.91653 -0.11446,0.22305 c -0.063,0.12268 -0.17403,0.26641 -0.24683,0.3194 -0.18522,0.13482 -0.52997,0.1596 -0.739,0.0531 l 0,0 z"
       id="path3830"
       inkscape:connector-curvature="0" />
    <path
       style="fill:#00cfeb;fill-opacity:0.98319325;stroke:#000000;stroke-width:0.03515445;stroke-miterlimit:4;stroke-opacity:1;stroke-dasharray:none"
       d="m 466.09767,795.08382 c -0.0917,-0.0467 -0.2273,-0.16435 -0.30132,-0.26136 l -0.13457,-0.17638 -0.0146,-2.89165 c -0.016,-3.18419 -0.0192,-3.14715 0.2916,-3.44488 0.12134,-0.11624 0.20536,-0.14746 0.44323,-0.16467 0.28384,-0.0205 0.30023,-0.0148 0.49704,0.17257 0.13002,0.1238 0.22413,0.27043 0.26057,0.40598 0.0402,0.14961 0.0529,1.04569 0.0429,3.03835 -0.0129,2.57114 -0.022,2.84053 -0.10128,2.98542 -0.19122,0.34951 -0.65012,0.50656 -0.9836,0.33662 l 0,0 z"
       id="path3832"
       inkscape:connector-curvature="0" />
    <path
       style="fill:#00cfeb;fill-opacity:0.98319325;stroke:#000000;stroke-width:0.03515445;stroke-miterlimit:4;stroke-opacity:1;stroke-dasharray:none"
       d="m 454.70987,795.02251 c -0.14062,-0.0655 -0.23494,-0.15634 -0.30133,-0.29009 -0.0915,-0.18426 -0.0974,-0.35057 -0.11148,-3.10155 l -0.0148,-2.90686 0.12336,-0.18642 c 0.29256,-0.44208 0.90753,-0.4622 1.16406,-0.0381 0.0941,0.15553 0.0988,0.28677 0.11231,3.10031 0.0131,2.73523 0.008,2.94979 -0.0753,3.11011 -0.18388,0.35418 -0.54066,0.47854 -0.89674,0.31259 z"
       id="path3834"
       inkscape:connector-curvature="0" />
    <path
       sodipodi:type="arc"
       style="fill:none;stroke:#000000;stroke-width:1.69136822;stroke-miterlimit:4;stroke-opacity:1;stroke-dasharray:none"
       id="path3836"
       sodipodi:cx="47.5"
       sodipodi:cy="14.5"
       sodipodi:rx="7.5"
       sodipodi:ry="7.5"
       d="m 55,14.5 a 7.5,7.5 0 1 1 -15,0 7.5,7.5 0 1 1 15,0 z"
       transform="matrix(0.79944235,0,0,0.73248149,452.56228,782.52928)" />
  </g>
</svg>
