<?xml version="1.0" encoding="UTF-8" standalone="no"?>
<!-- Created with Inkscape (http://www.inkscape.org/) -->

<svg
   xmlns:dc="http://purl.org/dc/elements/1.1/"
   xmlns:cc="http://creativecommons.org/ns#"
   xmlns:rdf="http://www.w3.org/1999/02/22-rdf-syntax-ns#"
   xmlns:svg="http://www.w3.org/2000/svg"
   xmlns="http://www.w3.org/2000/svg"
   xmlns:xlink="http://www.w3.org/1999/xlink"
   xmlns:sodipodi="http://sodipodi.sourceforge.net/DTD/sodipodi-0.dtd"
   xmlns:inkscape="http://www.inkscape.org/namespaces/inkscape"
   width="65"
   height="22"
   id="svg2857"
   version="1.1"
   inkscape:version="0.48.4 r9939"
   sodipodi:docname="toggle-on-intl.svg">
  <defs
     id="defs2859">
    <linearGradient
       id="linearGradient3818">
      <stop
         style="stop-color:#006471;stop-opacity:1;"
         offset="0"
         id="stop3820" />
      <stop
         style="stop-color:#00cfeb;stop-opacity:1;"
         offset="1"
         id="stop3822" />
    </linearGradient>
    <linearGradient
       id="linearGradient3771">
      <stop
         style="stop-color:#3d3d3d;stop-opacity:1;"
         offset="0"
         id="stop3773" />
      <stop
         style="stop-color:#1a1a1a;stop-opacity:1;"
         offset="1"
         id="stop3775" />
    </linearGradient>
    <inkscape:perspective
       sodipodi:type="inkscape:persp3d"
       inkscape:vp_x="0 : 526.18109 : 1"
       inkscape:vp_y="0 : 1000 : 0"
       inkscape:vp_z="744.09448 : 526.18109 : 1"
       inkscape:persp3d-origin="372.04724 : 350.78739 : 1"
       id="perspective2865" />
    <inkscape:perspective
       id="perspective2843"
       inkscape:persp3d-origin="0.5 : 0.33333333 : 1"
       inkscape:vp_z="1 : 0.5 : 1"
       inkscape:vp_y="0 : 1000 : 0"
       inkscape:vp_x="0 : 0.5 : 1"
       sodipodi:type="inkscape:persp3d" />
    <linearGradient
       inkscape:collect="always"
       xlink:href="#linearGradient3771"
       id="linearGradient3777"
       x1="-488.85876"
       y1="782.98712"
       x2="-488.85876"
       y2="801.73718"
       gradientUnits="userSpaceOnUse"
       gradientTransform="matrix(0.96930044,0,0,0.88210673,-14.637064,93.41414)" />
    <linearGradient
       inkscape:collect="always"
       xlink:href="#linearGradient3818"
       id="linearGradient3824"
       x1="-468.5065"
       y1="783.75989"
       x2="-468.79059"
       y2="795.19458"
       gradientUnits="userSpaceOnUse" />
  </defs>
  <sodipodi:namedview
     id="base"
     pagecolor="#ffffff"
     bordercolor="#666666"
     borderopacity="1.0"
     inkscape:pageopacity="0.0"
     inkscape:pageshadow="2"
     inkscape:zoom="19.912127"
     inkscape:cx="52.411848"
     inkscape:cy="9.7334529"
     inkscape:document-units="px"
     inkscape:current-layer="layer1"
     showgrid="true"
     inkscape:window-width="1112"
     inkscape:window-height="751"
     inkscape:window-x="609"
     inkscape:window-y="395"
     inkscape:window-maximized="0"
     borderlayer="true"
     inkscape:showpageshadow="false">
    <inkscape:grid
       type="xygrid"
       id="grid3826" />
  </sodipodi:namedview>
  <metadata
     id="metadata2862">
    <rdf:RDF>
      <cc:Work
         rdf:about="">
        <dc:format>image/svg+xml</dc:format>
        <dc:type
           rdf:resource="http://purl.org/dc/dcmitype/StillImage" />
        <dc:title />
      </cc:Work>
    </rdf:RDF>
  </metadata>
  <g
     inkscape:label="Layer 1"
     inkscape:groupmode="layer"
     id="layer1"
     transform="translate(-444.64286,-781.36218)">
    <rect
       transform="scale(-1,1)"
       ry="4"
       rx="4"
       y="782.86218"
       x="-508.14285"
       height="19"
       width="63.000004"
       id="rect16256-9-4"
       style="color:#000000;fill:url(#linearGradient3824);fill-opacity:1;fill-rule:nonzero;stroke:#000000;stroke-width:0.99999994000000003;stroke-linecap:round;stroke-linejoin:miter;stroke-miterlimit:4;stroke-opacity:1;stroke-dasharray:none;stroke-dashoffset:0;marker:none;visibility:visible;display:inline;overflow:visible;enable-background:accumulate" />
    <rect
       transform="scale(-1,1)"
       ry="3.5284271"
       rx="3.8772018"
       y="783.54114"
       x="-507.66479"
       height="17.642134"
       width="30.048315"
       id="rect16258-5-4"
       style="fill:url(#linearGradient3777);fill-opacity:1;stroke:#00304c;stroke-width:0.64727348;stroke-linecap:round;stroke-linejoin:miter;stroke-miterlimit:4;stroke-opacity:1;stroke-dasharray:none;stroke-dashoffset:0;display:inline" />
    <g
       transform="matrix(-1.905215,0,0,1.2899211,2029.4448,639.90407)"
       id="g16298-3-6"
       style="display:inline;fill:#ffffff">
      <path
         style="fill:#ffffff;stroke:#5f5f5f;stroke-width:1px;stroke-linecap:round;stroke-linejoin:miter;stroke-opacity:1"
         d="m 803.6322,115.48629 0,4.29495"
         id="path16265-3-5"
         inkscape:connector-curvature="0" />
      <path
         style="fill:#ffffff;stroke:#5f5f5f;stroke-width:1px;stroke-linecap:round;stroke-linejoin:miter;stroke-opacity:1;display:inline"
         d="m 806.62805,115.48629 0,4.29495"
         id="path16265-0-2-0"
         inkscape:connector-curvature="0" />
      <path
         style="fill:#ffffff;stroke:#5f5f5f;stroke-width:1px;stroke-linecap:round;stroke-linejoin:miter;stroke-opacity:1;display:inline"
         d="m 809.6239,115.48629 0,4.29495"
         id="path16265-8-7-1"
         inkscape:connector-curvature="0" />
    </g>
    <g
       id="text42229-3-0"
       style="font-size:8.95877075px;font-style:normal;font-variant:normal;font-weight:bold;font-stretch:normal;text-indent:0;text-align:start;text-decoration:none;line-height:125%;letter-spacing:normal;word-spacing:normal;text-transform:none;direction:ltr;block-progression:tb;writing-mode:lr-tb;text-anchor:start;color:#000000;fill:#00304c;fill-opacity:1;fill-rule:nonzero;stroke:none;stroke-width:1px;marker:none;visibility:visible;display:inline;overflow:visible;enable-background:accumulate;font-family:Cantarell;-inkscape-font-specification:Cantarell Bold"
       transform="translate(-397.66396,693.87354)">
      <path
         inkscape:connector-curvature="0"
         id="path18606"
         style="line-height:125%;fill:#00304c;fill-opacity:1;marker:none;font-family:Cantarell;-inkscape-font-specification:Cantarell Bold"
         d="m 808.01473,80.573953 c 0.63283,6e-6 1.19567,0.123947 1.68852,0.371824 0.49284,0.247888 0.88071,0.609505 1.16359,1.084851 0.28287,0.472439 0.42431,1.022155 0.42432,1.649149 -10e-6,0.635748 -0.13853,1.200045 -0.41557,1.692892 -0.27705,0.489934 -0.66637,0.870506 -1.16796,1.141719 -0.50161,0.271212 -1.07757,0.406819 -1.72789,0.406819 -0.4287,0 -0.83552,-0.06562 -1.22046,-0.196848 -0.38495,-0.134148 -0.73053,-0.32808 -1.03673,-0.581795 -0.3033,-0.256631 -0.54535,-0.589085 -0.72615,-0.997363 -0.1779,-0.408276 -0.26684,-0.869045 -0.26684,-1.382311 0,-0.638658 0.13998,-1.200039 0.41994,-1.684144 0.27996,-0.487011 0.66782,-0.858835 1.16359,-1.115472 0.49576,-0.259541 1.06298,-0.389315 1.70164,-0.389321 m 0.57305,1.089225 c -0.20123,-0.05249 -0.40682,-0.07873 -0.61679,-0.07874 -0.20998,5e-6 -0.41411,0.02625 -0.61242,0.07874 -0.19831,0.04958 -0.38932,0.129779 -0.57304,0.240592 -0.18081,0.107907 -0.33975,0.242055 -0.47681,0.402445 -0.13707,0.160399 -0.24643,0.358705 -0.32808,0.594918 -0.0817,0.233305 -0.12249,0.491395 -0.12249,0.774269 0,0.67366 0.20851,1.214627 0.62554,1.622902 0.41703,0.408279 0.93758,0.612417 1.56166,0.612416 0.25955,10e-7 0.51035,-0.04228 0.7524,-0.126857 0.24496,-0.08457 0.47097,-0.20997 0.67803,-0.376199 0.20705,-0.166225 0.37328,-0.392236 0.49868,-0.678031 0.1254,-0.285792 0.1881,-0.610956 0.1881,-0.975492 0,-0.297455 -0.0437,-0.568668 -0.13123,-0.813638 -0.0875,-0.247878 -0.20414,-0.453475 -0.34995,-0.61679 -0.1429,-0.163307 -0.31059,-0.301829 -0.50306,-0.415568 -0.18956,-0.11373 -0.38641,-0.195385 -0.59054,-0.244967" />
      <path
         inkscape:connector-curvature="0"
         id="path18608"
         style="line-height:125%;fill:#00304c;fill-opacity:1;marker:none;font-family:Cantarell;-inkscape-font-specification:Cantarell Bold"
         d="m 813.15903,80.639569 1.21608,0 3.4689,4.776844 0,-4.776844 1.10235,0 0,6.216022 -1.22921,0 -3.45577,-4.785594 0,4.785594 -1.10235,0 0,-6.216022" />
    </g>
    <path
       inkscape:connector-curvature="0"
       id="path19232"
       d="m 461.40422,787.22013 0,10.125"
       style="color:#000000;fill:#00304c;fill-opacity:1;fill-rule:nonzero;stroke:#000502;stroke-width:2;stroke-linecap:square;stroke-linejoin:miter;stroke-miterlimit:4;stroke-opacity:1;stroke-dasharray:none;stroke-dashoffset:0;marker:none;visibility:visible;display:inline;overflow:visible;enable-background:accumulate" />
    <path
       style="fill:#ffffff;fill-opacity:1;stroke:#000000;stroke-width:0.03515445;stroke-miterlimit:4;stroke-opacity:1;stroke-dasharray:none"
       d="m 41.964724,13.710201 c -0.151846,-0.07098 -0.234586,-0.155028 -0.31388,-0.318827 -0.106323,-0.219636 -0.107668,-0.259046 -0.106852,-3.131932 l 8.26e-4,-2.9094967 0.112171,-0.1956546 c 0.277496,-0.4840277 0.95952,-0.5065062 1.274604,-0.042009 0.08761,0.129149 0.09392,0.3115502 0.10738,3.1002403 0.01278,2.648007 0.0056,2.981706 -0.06725,3.138791 -0.179377,0.386624 -0.615312,0.54199 -1.006995,0.358888 l 0,0 z"
       id="path3828"
       inkscape:connector-curvature="0"
       transform="translate(444.64286,781.36218)" />
    <path
       style="fill:#00cfeb;fill-opacity:0.98319328;stroke:#000000;stroke-width:0.03515445000000000;stroke-miterlimit:4;stroke-opacity:1;stroke-dasharray:none"
       d="m 47.67758,13.720904 c -0.09255,-0.04714 -0.228148,-0.176158 -0.301324,-0.286701 L 47.24321,13.233216 47.22868,10.404707 c -0.01,-1.9420762 0.0028,-2.892769 0.04069,-3.0335567 0.03037,-0.1127765 0.128703,-0.285239 0.218523,-0.38325 0.137169,-0.1496767 0.205399,-0.1822459 0.426247,-0.2034666 0.319353,-0.030686 0.534833,0.068889 0.713656,0.3297847 l 0.122032,0.1780392 0.01402,2.9165314 0.01402,2.916531 -0.114462,0.223053 c -0.06295,0.122679 -0.174028,0.26641 -0.246832,0.319402 -0.185217,0.134814 -0.529968,0.159599 -0.738997,0.05313 l 0,0 z"
       id="path3830"
       inkscape:connector-curvature="0"
       transform="translate(444.64286,781.36218)" />
    <path
       style="fill:#00cfeb;fill-opacity:0.98319325;stroke:#000000;stroke-width:0.03515445;stroke-miterlimit:4;stroke-opacity:1;stroke-dasharray:none"
       d="m 53.395149,13.721643 c -0.09171,-0.04674 -0.227308,-0.164348 -0.301323,-0.261361 l -0.134573,-0.176385 -0.01455,-2.891645 c -0.01602,-3.18419 -0.01916,-3.1471478 0.291604,-3.4448771 0.121337,-0.1162485 0.20536,-0.1474649 0.443232,-0.1646711 0.283836,-0.020531 0.300224,-0.014841 0.49704,0.1725641 0.130018,0.1238009 0.224128,0.2704323 0.260565,0.4059842 0.04022,0.1496097 0.05286,1.0456915 0.04288,3.0383499 -0.01288,2.571141 -0.02202,2.84053 -0.101283,2.985417 -0.191213,0.349509 -0.650113,0.506562 -0.983595,0.336624 l 0,0 z"
       id="path3832"
       inkscape:connector-curvature="0"
       transform="translate(444.64286,781.36218)" />
    <path
       style="fill:#00cfeb;fill-opacity:0.98319325;stroke:#000000;stroke-width:0.03515445;stroke-miterlimit:4;stroke-opacity:1;stroke-dasharray:none"
       d="m 42.007341,13.660333 c -0.14062,-0.06553 -0.23494,-0.156339 -0.301324,-0.290094 -0.09145,-0.184258 -0.09743,-0.350565 -0.111484,-3.101553 L 41.57968,7.3618303 41.703048,7.1754092 c 0.292553,-0.4420777 0.907528,-0.4622008 1.16406,-0.03809 0.09408,0.1555308 0.09883,0.2867717 0.112309,3.1003138 0.0131,2.735224 0.0079,2.949788 -0.07533,3.110111 -0.183882,0.354174 -0.54066,0.478541 -0.896745,0.312589 z"
       id="path3834"
       inkscape:connector-curvature="0"
       transform="translate(444.64286,781.36218)" />
  </g>
</svg>
